<svg xmlns="http://www.w3.org/2000/svg" viewBox="0 0 24 24" fill="#1DB954" width="24" height="24">
  <path d="M12 2C6.477 2 2 6.477 2 12s4.477 10 10 10 10-4.477 10-10S17.523 2 12 2zm4.586 14.424a.623.623 0 0 1-.857.207c-2.348-1.435-5.304-1.76-8.785-.964a.623.623 0 0 1-.277-1.215c3.809-.87 7.077-.496 9.712 1.115a.623.623 0 0 1 .207.857zm1.223-2.722a.78.78 0 0 1-1.072.257C14.1 12.226 10.763 11.8 7.2 12.76a.78.78 0 0 1-.4-1.507c4-.952 7.716-.49 10.737 1.377a.78.78 0 0 1 .272 1.072zm.105-2.835C14.692 9.15 9.375 8.967 6.297 9.91a.937.937 0 1 1-.543-1.794c3.532-1.073 9.404-.865 13.115 1.338a.937.937 0 0 1-.955 1.613z"/>
</svg>
